<?xml version="1.0" standalone="no"?>
<!DOCTYPE svg PUBLIC "-//W3C//DTD SVG 20010904//EN"
 "http://www.w3.org/TR/2001/REC-SVG-20010904/DTD/svg10.dtd">
<svg version="1.0" xmlns="http://www.w3.org/2000/svg"
 width="300.000000pt" height="300.000000pt" viewBox="0 0 300.000000 300.000000"
 preserveAspectRatio="xMidYMid meet">
<metadata>
Created by potrace 1.10, written by Peter Selinger 2001-2011
</metadata>
<g transform="translate(0.000000,300.000000) scale(0.100000,-0.100000)"
fill="#000000" stroke="none">
<path d="M720 2076 c0 -2 28 -50 63 -107 94 -155 45 -143 582 -149 l450 -5 57
-28 c41 -20 65 -40 87 -74 17 -26 31 -50 31 -55 0 -4 65 -8 145 -8 l145 0 -6
28 c-37 156 -125 271 -259 338 -125 62 -149 64 -752 64 -299 0 -543 -2 -543
-4z m1236 -74 c105 -42 190 -117 233 -204 17 -34 31 -72 31 -85 0 -23 -2 -23
-100 -23 l-100 0 -24 38 c-13 21 -40 51 -61 66 -72 55 -92 57 -560 60 -276 2
-439 7 -456 13 -45 19 -119 121 -119 165 0 5 215 8 538 6 l537 -3 81 -33z"/>
<path d="M910 1749 c0 -17 78 -134 103 -155 23 -20 39 -24 91 -24 l63 0 -5
-53 c-6 -72 21 -207 56 -281 63 -133 186 -239 333 -287 106 -34 281 -35 387 0
178 59 310 207 338 381 l7 40 -141 0 -141 0 -19 -42 c-57 -129 -220 -181 -355
-115 -65 32 -100 70 -136 147 -51 108 -28 292 45 361 13 12 24 25 24 28 0 3
-146 6 -325 6 -179 0 -325 -3 -325 -6z m556 -41 c1 -2 -6 -30 -18 -63 -23 -69
-27 -202 -8 -261 32 -96 91 -165 175 -205 49 -24 73 -29 130 -29 116 1 190 38
252 128 l37 53 95 -3 96 -3 -3 -35 c-1 -19 -12 -55 -24 -80 -29 -59 -131 -161
-193 -192 -145 -73 -332 -77 -499 -10 -87 34 -207 147 -247 232 -34 71 -59
182 -59 264 0 58 -3 67 -26 85 -18 14 -41 21 -71 21 -55 0 -78 12 -98 50 -19
38 -19 48 3 52 20 5 453 1 458 -4z"/>
</g>
</svg>
