<?xml version="1.0" encoding="UTF-8"?>
<svg xmlns="http://www.w3.org/2000/svg" xmlns:xlink="http://www.w3.org/1999/xlink" width="3000" height="3000" viewBox="0 0 3000 3000">

<path fill-rule="nonzero" fill="rgb(0%, 0%, 0%)" fill-opacity="1" d="M 524.652344 1752.128906 C 524.652344 1752.128906 593.296875 1799.28125 655.578125 1794.160156 C 717.859375 1789.039062 2239.78125 1767.488281 2239.78125 1767.488281 L 2393.089844 1723.96875 L 2424.230469 1652.28125 C 2421.371094 1532.199219 2395.480469 1432.960938 2322.628906 1340.089844 L 2154.390625 1300.929688 L 1910.011719 1198.398438 C 1579.28125 1093.960938 1301.5 1120.339844 1034.878906 1337.351562 C 1034.878906 1337.351562 612.425781 1460.011719 586.933594 1470.488281 C 541.507812 1489.160156 480.769531 1711.410156 524.652344 1752.128906 Z M 524.652344 1752.128906 "/>
<path fill-rule="nonzero" fill="rgb(100%, 100%, 100%)" fill-opacity="1" stroke-width="1283.8" stroke-linecap="butt" stroke-linejoin="round" stroke="rgb(0%, 0%, 0%)" stroke-opacity="1" stroke-miterlimit="4" d="M 22328.90625 13054.6875 C 22328.90625 12469.882812 21806.796875 11995.78125 21162.695312 11995.78125 C 20518.59375 11995.78125 19996.484375 12469.882812 19996.484375 13054.6875 C 19996.484375 13639.492188 20518.59375 14113.59375 21162.695312 14113.59375 C 21806.796875 14113.59375 22328.90625 13639.492188 22328.90625 13054.6875 Z M 22328.90625 13054.6875 " transform="matrix(0.1, 0, 0, -0.1, 0, 3000)"/>
<path fill-rule="nonzero" fill="rgb(100%, 100%, 100%)" fill-opacity="1" stroke-width="1283.8" stroke-linecap="butt" stroke-linejoin="round" stroke="rgb(0%, 0%, 0%)" stroke-opacity="1" stroke-miterlimit="4" d="M 9728.789062 13095.703125 C 9728.789062 12510.898438 9206.679688 12036.796875 8562.578125 12036.796875 C 7918.515625 12036.796875 7396.40625 12510.898438 7396.40625 13095.703125 C 7396.40625 13680.585938 7918.515625 14154.609375 8562.578125 14154.609375 C 9206.679688 14154.609375 9728.789062 13680.585938 9728.789062 13095.703125 Z M 9728.789062 13095.703125 " transform="matrix(0.1, 0, 0, -0.1, 0, 3000)"/>
<path fill-rule="nonzero" fill="rgb(100%, 100%, 100%)" fill-opacity="1" d="M 1123.71875 1396.328125 L 2020.691406 1346.160156 C 1832.648438 1135.769531 1282.730469 1151.25 1105.648438 1396.328125 Z M 1123.71875 1396.328125 "/>
<path fill-rule="nonzero" fill="rgb(0%, 0%, 0%)" fill-opacity="1" d="M 1561.210938 1184.910156 L 1533.871094 1387.058594 L 1630.550781 1394.871094 L 1653.011719 1186.859375 Z M 1561.210938 1184.910156 "/>
</svg>
